<svg id="Capa_1" enable-background="new 0 0 512 512" height="512" viewBox="0 0 512 512" width="512" xmlns="http://www.w3.org/2000/svg"><g><path d="m472 0c-18.604 0-34.282 12.767-38.734 30h-87.266c-5.522 0-10 4.478-10 10v110h-70v-71.266c17.233-4.452 30-20.13 30-38.734 0-22.056-17.944-40-40-40s-40 17.944-40 40c0 18.604 12.767 34.282 30 38.734v71.266h-70v-110c0-5.522-4.478-10-10-10h-87.266c-4.452-17.233-20.13-30-38.734-30-22.056 0-40 17.944-40 40s17.944 40 40 40c18.604 0 34.282-12.767 38.734-30h77.266v100h-20c-5.522 0-10 4.478-10 10v252c0 2.742 1.143 5.284 2.929 7.071l90 90c1.795 1.795 4.337 2.929 7.071 2.929h150c5.522 0 10-4.478 10-10v-126c0-5.522-4.478-10-10-10s-10 4.478-10 10v116h-130v-80c0-5.522-4.478-10-10-10h-80v-232h220v116c0 5.522 4.478 10 10 10s10-4.478 10-10v-126c0-5.522-4.478-10-10-10h-20v-100h77.266c4.452 17.233 20.13 30 38.734 30 22.056 0 40-17.944 40-40s-17.944-40-40-40zm-432 60c-11.028 0-20-8.972-20-20s8.972-20 20-20 20 8.972 20 20-8.972 20-20 20zm176 362v55.857l-55.857-55.857zm20-382c0-11.028 8.972-20 20-20s20 8.972 20 20-8.972 20-20 20-20-8.972-20-20zm236 20c-11.028 0-20-8.972-20-20s8.972-20 20-20 20 8.972 20 20-8.972 20-20 20z"/><path d="m316 276h-120c-5.522 0-10 4.478-10 10s4.478 10 10 10h120c5.522 0 10-4.478 10-10s-4.478-10-10-10z"/><path d="m316 336h-120c-5.522 0-10 4.478-10 10s4.478 10 10 10h120c5.522 0 10-4.478 10-10s-4.478-10-10-10z"/><circle cx="376" cy="331" r="10"/></g></svg>